<?xml version="1.0" encoding="UTF-8"?>
<svg id="uuid-c17c6b99-51bf-4a06-9a65-59a6bd075083" data-name="Layer 2" xmlns="http://www.w3.org/2000/svg" viewBox="0 0 1509.57 250">
  <!-- <defs>
    <style>
      .uuid-9bd41677-c1f6-48b1-8ae6-9c96de71b957 {
        stroke-width: 0px;
      }
    </style>
  </defs> -->
  <g id="uuid-2c049678-4286-44ae-998c-ac56a46e4a66" data-name="Layer 1">
    <g id="uuid-c928c123-8572-43b3-ae20-9ce0ebd8efea" data-name="Layer 1">
      <g id="uuid-f2bb55e0-3083-4483-86ce-dc63f8768c63" data-name="Layer 1-2">
        <g>
          <path class="uuid-9bd41677-c1f6-48b1-8ae6-9c96de71b957" d="M181.52,36.34c-5.44,4.96-6.15,4.96-11.34,11.34-6.85,7.8-5.2,7.33-7.09,11.58,2.84-3.78,4.96-6.38,8.04-11.11,7.33-6.85,7.09-6.38,10.87-10.16,8.98-7.33,4.25-3.07,8.51-7.09,4.25-2.6,4.49-3.07,6.85-4.49,20.8-13,43.02-20.56,68.07-20.56,19.14,0,37.11,4.02,54.12,12.29,17.96,10.64,32.14,24.82,40.65,43.96,8.51,19.38,11.58,39.94,8.27,60.74-3.78,25.29-15.6,47.03-32.14,66.41-14.89,17.73-31.67,32.85-51.76,43.96-14.18,7.8-29.31,12.76-45.38,15.13-14.65,2.13-28.83,2.36-43.49-.24-4.96-.95-9.45-2.6-14.42-3.55-15.36-3.55-27.42-13.47-41.6-19.85-14.89-6.85-30.49-11.58-47.03-12.29-20.8-1.18-38.29,7.56-53.89,20.33-1.18.95-2.84,1.89-3.55,3.07-8.74,13-21.51,10.4-35.22,9.45,11.11-9.93,21.51-18.91,33.56-25.76.71,0,1.18-.24,1.42-.95h0c6.38-2.84,12.76-5.44,19.14-8.04h0c5.67-.95,11.34-2.13,17.02-2.6,11.58-.95,23.16-.47,34.74,1.65h0c11.11,2.6,21.27,7.8,32.14,10.64h0c5.44,3.07,10.87,6.15,16.31,9.45,20.8,12.05,42.78,18.91,66.89,17.02,9.69-.71,19.62-1.65,28.83-5.2.95-.24,1.89-.47,2.84-.71,2.13,0,4.02-.47,5.44-2.13.95,0,1.89-.47,3.07-.47.71,0,1.18,0,1.42-.95h0c10.87-3.78,20.8-9.45,30.25-15.6,34.51-21.74,60.27-50.58,67.36-92.18,5.44-31.67,1.65-61.92-19.62-88.16-18.44-22.69-56.72-37.34-85.79-31.43,12.29,0,24.34.95,35.93,5.44,39.94,15.6,55.07,48.92,49.16,88.63-3.78,24.34-16.54,45.14-34.27,61.92-39.47,37.34-84.38,53.18-138.03,34.98-.71-.24-1.18-.47-1.89-.71-15.6-8.27-27.18-20.33-35.93-35.69-3.78-7.8-6.38-16.31-7.09-24.82-.71-7.56-.24-14.89-.47-22.45,2.6,1.18,1.18,3.55,1.42,5.2.47,4.73-.47,9.45,1.18,13.94.71,10.64,4.73,20.09,10.4,29.07,13.94,21.27,34.27,32.14,59.32,34.03,25.29,1.89,49.16-4.73,71.14-17.02,30.96-17.25,53.18-41.6,61.21-76.81,4.49-19.62,1.42-38.52-10.16-55.31-.95-1.18-1.89-1.89-2.84-1.42-1.65.95-.24,1.89,0,3.07,2.13,6.62,3.31,13.24,3.78,20.33,1.42,28.13-13,49.4-30.73,68.78-12.05,13.24-26.94,21.98-43.72,27.89-20.09,7.09-40.65,10.64-61.92,5.67-25.05-6.15-44.91-28.36-47.27-54.36-1.42-14.89,2.13-28.83,7.33-42.54,3.55-3.07,3.07-8.27,7.09-10.87h0c.71,2.13-.95,3.78-1.65,5.44-8.04,16.78-11.58,34.27-5.44,52.47,3.55,10.16,8.51,19.62,20.09,22.93.47,0,.71,0,.95.24h-.95c-.47-3.78-3.55-5.91-5.67-8.51-12.29-15.13-14.89-33.09-11.11-51.29,3.07-14.89,11.58-27.89,21.74-39.71,6.85-8.04,14.18-15.6,23.63-20.56M211.3,106.3c22.45-3.07,42.31-13.24,53.65-35.69,9.93-19.62-2.84-39.71-24.82-40.42-21.98-.71-39.47,8.27-52.71,25.05-8.27,10.4-12.76,22.69-6.15,35.69,5.67,11.58,16.54,14.42,30.02,15.36h0Z"/>
          <path class="uuid-9bd41677-c1f6-48b1-8ae6-9c96de71b957" d="M1067.59,157.59c2.84-11.34,5.44-22.69,8.04-33.8,5.67-23.63,11.34-47.51,17.02-71.14.71-2.6,1.65-4.02,4.25-3.78h1.18c14.18-.95,14.42-.71,11.34,12.76-7.8,33.56-15.6,67.12-23.63,100.68-2.13,8.74-7.56,14.18-14.65,14.89-10.87,1.42-17.25-1.89-21.74-11.11-15.84-31.67-31.43-63.34-47.27-95.01-.71-1.42-1.18-2.6-2.84-3.07-2.13-.47-2.84,1.42-3.31,2.84-10.64,21.04-21.04,42.31-31.67,63.34-5.67,11.34-11.11,22.45-17.02,33.56-4.49,8.27-11.82,10.87-20.56,9.45-7.8-1.42-12.76-6.15-14.65-13.71-4.02-16.31-7.8-32.62-11.58-48.92-4.73-19.62-9.22-39.47-13.94-59.09q-1.65-6.62,5.2-6.62c13,0,12.76,0,15.6,12.53,5.67,25.29,11.82,50.58,17.73,75.87,1.42,5.67,2.6,11.11,3.78,16.78.24,1.18.47,2.36,1.89,2.6,1.42.24,2.13-.95,2.6-2.13,10.64-21.51,21.04-43.02,31.67-64.52,5.44-10.87,10.87-21.98,17.02-32.38,7.8-12.76,27.42-11.82,34.27,1.42,12.05,23.4,23.63,47.27,35.45,70.67,4.73,9.45,9.45,18.91,14.18,28.36.47,0,.95-.24,1.42-.47h.24Z"/>
          <path class="uuid-9bd41677-c1f6-48b1-8ae6-9c96de71b957" d="M600.56,70.14c-4.25,3.78-5.91,7.8-8.27,11.58-17.96,28.83-35.93,57.67-53.89,86.5-8.27,13-27.18,13.71-35.45.71-12.53-19.38-24.34-39-36.87-58.38-7.33-11.58-14.65-23.16-21.98-34.74-.71-1.18-1.42-3.55-3.31-2.84-1.65.47-1.18,2.36-1.18,3.78v96.67c0,3.55-1.42,4.25-4.49,4.49q-13.47.47-13.47-13v-97.14c0-8.74,4.73-15.84,11.82-17.73,8.51-2.6,16.78.95,21.51,8.27,19.62,31.43,39.47,62.87,59.09,94.54.71,1.18,1.42,2.36,2.36,3.55,3.55,4.49,5.44,4.49,8.27-.24,16.31-26.23,32.38-52.71,48.92-78.7,5.44-8.51,9.22-17.96,17.02-24.58,9.22-7.56,25.29-2.13,27.89,9.69.71,2.6.95,5.44.95,8.27v103.76c0,2.6-.71,3.78-3.31,3.55h-.71q-14.89.95-14.89-13.94v-86.5c0-1.89-.24-3.78-.47-6.62v-.47l.47-.47ZM440.32,71.08s-.24-.24-.24-.47c0,0-.24.24-.47.47,0,0,.47.24.47.47,0,0,0-.24.24-.47h0Z"/>
          <path class="uuid-9bd41677-c1f6-48b1-8ae6-9c96de71b957" d="M1330.65,70.61v101.39c0,4.25-1.42,5.44-5.44,5.44-13.24,0-13.24.24-13.47-13.24,0-32.14-.24-64.29-.24-96.67s5.91-16.07,12.76-18.2c8.51-2.6,16.31.71,21.27,8.51,20.33,32.38,40.65,64.76,60.98,97.38,3.31,5.2,4.73,5.44,8.27,0,12.29-19.14,24.34-38.76,36.4-57.91,8.27-13,16.54-26,24.58-39,7.8-12.29,23.63-12.53,31.67-.47,1.42,2.13,2.13,4.25,2.13,6.62v107.3c0,4.73-1.42,5.91-5.91,5.91-12.53-.47-12.29,0-12.05-12.53.24-29.31.24-58.85.24-88.39s.71-3.55-1.42-4.02c-1.89-.47-2.6,1.65-3.55,2.84-16.31,26-32.38,52-48.69,78-3.07,4.96-6.15,9.93-9.45,14.89-8.51,13-27.18,13.71-35.69.71-11.58-17.49-22.22-35.22-33.09-52.94-8.98-14.18-17.73-28.36-26.71-42.54-.47-.71-1.18-1.18-3.07-2.6h.24l.24-.47Z"/>
          <path class="uuid-9bd41677-c1f6-48b1-8ae6-9c96de71b957" d="M762.94,177.2h-72.09c-4.25,0-5.67-.95-5.67-5.67.24-39.23,0-78.7,0-117.94,0-4.25,1.18-5.44,5.44-5.44,47.51,0,94.78-.24,142.05.24,21.74.24,36.87,16.31,37.11,38.05,0,18.2.24,36.16,0,54.6-.24,20.33-16.54,36.16-36.63,35.93h-69.96l-.24.24ZM770.26,159.24h0c20.33,0,40.65.24,60.98,0,12.53,0,19.62-7.33,19.62-19.38v-53.89c0-10.87-6.85-18.67-17.73-18.67-41.6-.24-82.96,0-124.56,0s-4.96.95-4.96,4.73v82.96c0,27.65,1.42,4.49,4.96,4.49,20.56-.24,41.12,0,61.69,0h0v-.24Z"/>
          <path class="uuid-9bd41677-c1f6-48b1-8ae6-9c96de71b957" d="M1102.33,177.2c9.22-15.6,17.73-29.78,26.23-44.2,14.65-24.34,29.31-48.69,44.2-73.03,4.02-6.62,9.69-10.64,17.73-11.34,1.89,0,3.55,0,5.44-.24,15.6-2.13,25.76,4.73,33.33,18.44,11.34,20.56,24.11,40.65,36.16,60.74,8.74,14.65,17.25,29.54,26.23,43.96,3.07,4.96,1.42,5.2-3.31,5.44-10.64,1.18-18.44-1.18-22.93-12.53-3.31-8.74-9.45-16.07-14.18-24.34-1.89-3.07-4.02-4.25-7.56-4.25h-89.34c-4.49,0-6.62,1.42-8.74,5.2-6.15,10.87-12.76,21.27-18.91,31.91-1.65,2.6-3.31,4.02-6.62,4.02-5.44-.24-11.11,0-17.73,0h0v.24ZM1198.29,117.88h32.62c6.62,0,6.85-.47,3.55-5.91-8.27-13.71-16.54-27.18-24.82-40.89-3.78-5.91-18.2-5.67-21.98.47-8.51,13.94-17.02,27.89-25.53,41.83-2.13,3.55-1.65,4.73,2.6,4.73h33.8l-.24-.24Z"/>
          <path class="uuid-9bd41677-c1f6-48b1-8ae6-9c96de71b957" d="M643.11,113.39v-58.61c0-5.2,1.65-6.38,6.38-6.38,12.29.24,12.29,0,12.29,12.05v110.14c0,5.67-1.65,6.85-7.09,6.85-12.05-.47-12.05,0-11.82-12.05v-52.23h0l.24.24Z"/>
          <path class="uuid-9bd41677-c1f6-48b1-8ae6-9c96de71b957" d="M293.31.89c4.73.47,14.18,2.36,18.67,3.55s11.82,3.78,17.49,5.91c10.16,4.02,19.62,9.69,28.13,16.54,0,.47-.24.95-.24,1.42-10.87-8.04-22.69-14.89-35.45-18.67-19.14-7.33-21.74-6.62-33.09-7.56-23.16-2.13-45.62,2.36-67.6,9.69,2.6-3.31,6.62-3.78,10.16-4.73,2.13-.71,4.02-1.18,5.67-2.36C254.78-.06,272.75-.77,290.71.65"/>
          <path class="uuid-9bd41677-c1f6-48b1-8ae6-9c96de71b957" d="M35.22,218.8c0,.71-.47,1.18-1.42.95.47-.47.95-.71,1.42-.95Z"/>
          <path class="uuid-9bd41677-c1f6-48b1-8ae6-9c96de71b957" d="M161.66,147.66h.95c-.47,0-.71,0-.95-.24h0v.24Z"/>
          <path class="uuid-9bd41677-c1f6-48b1-8ae6-9c96de71b957" d="M261.4,238.42c.47-.24.95-.71,1.42-.95,0,.71-.71.95-1.42.95Z"/>
          <path class="uuid-9bd41677-c1f6-48b1-8ae6-9c96de71b957" d="M196.41,24.05c-1.42,2.13-3.07,4.02-6.15,3.55,1.42-2.13,3.31-4.02,6.15-3.55Z"/>
          <path class="uuid-9bd41677-c1f6-48b1-8ae6-9c96de71b957" d="M201.13,20.5c-.47,2.84-2.6,3.31-4.96,3.78.71-2.36,2.6-3.31,4.96-3.78Z"/>
          <path class="uuid-9bd41677-c1f6-48b1-8ae6-9c96de71b957" d="M210.59,15.78c-1.18,1.89-2.84,2.84-4.96,2.6.71-2.84,3.07-2.36,4.96-2.6Z"/>
          <path class="uuid-9bd41677-c1f6-48b1-8ae6-9c96de71b957" d="M221.22,11.05c-1.65,1.89-3.78,2.6-6.15,2.6,1.42-2.6,3.78-2.6,6.15-2.6Z"/>
          <path class="uuid-9bd41677-c1f6-48b1-8ae6-9c96de71b957" d="M215.31,13.41c-1.18,1.89-2.84,2.36-4.96,2.6.71-2.84,2.84-2.6,4.96-2.6Z"/>
          <path class="uuid-9bd41677-c1f6-48b1-8ae6-9c96de71b957" d="M205.86,18.14c-.95,2.13-2.6,3.07-4.96,2.6,1.18-1.89,2.84-2.6,4.96-2.6Z"/>
          <path class="uuid-9bd41677-c1f6-48b1-8ae6-9c96de71b957" d="M151.03,63.28c0,1.65.47,3.55-2.36,3.55h0c0-1.65.47-3.07,2.36-3.55h0Z"/>
          <polygon class="uuid-9bd41677-c1f6-48b1-8ae6-9c96de71b957" points="151.26 63.28 151.26 63.05 151.03 63.28 151.26 63.28"/>
          <path class="uuid-9bd41677-c1f6-48b1-8ae6-9c96de71b957" d="M237.06,4.43s-42.78,8.27-74.92,49.63c-32.14,41.36,3.78-.71,3.78-.71,0,0,27.65-34.74,71.61-46.8,44.2-12.05-.71-2.13-.71-2.13h.24Z"/>
        </g>
      </g>
    </g>
  </g>
</svg>