<?xml version="1.0" encoding="utf-8"?>
<!-- Generator: Adobe Illustrator 24.2.3, SVG Export Plug-In . SVG Version: 6.00 Build 0)  -->
<svg version="1.1" id="Layer_1" xmlns="http://www.w3.org/2000/svg" xmlns:xlink="http://www.w3.org/1999/xlink" x="0px" y="0px"
	 viewBox="0 0 647.3 114.6" style="enable-background:new 0 0 647.3 114.6;" xml:space="preserve">
<path d="M451.9,72.6c5.1-10.9,10.2-21.8,15.3-32.7c2-4.3,3.9-8.7,6.1-13c1.7-3.5,5.2-4.3,8.2-2.2c2.7,1.9,2.3,4.3,1.1,6.9
	c-4.6,9.9-9.2,19.9-13.9,29.8c-3.3,7.2-6.7,14.3-10,21.6c-1.4,3.2-3.3,5.7-7.2,5.5c-3.7-0.2-5.7-2.4-7.2-5.6
	c-6.5-14.3-13.2-28.6-19.8-42.8c-0.3-0.6-0.6-1.1-1-1.7c-1.4,0.4-1.5,1.6-1.9,2.5c-6.6,14.2-13.2,28.3-19.7,42.5
	c-1.4,3.1-3.6,4.9-6.9,5.1c-3.5,0.2-5.5-1.9-6.9-4.9c-7.9-17.1-15.9-34.2-23.8-51.4c-2-4.2-1.4-6.7,2-8.1c3.2-1.4,5.8-0.1,7.6,3.9
	c6.4,13.7,12.8,27.5,19.2,41.3c0.5,1.1,1,2.1,1.6,3.2c1.2-0.6,1.4-1.7,1.8-2.7c6.5-14.1,13.1-28.1,19.6-42.2
	c1.5-3.3,3.9-4.8,7.5-4.7c3.5,0.1,5.6,1.9,7,4.9c6.3,13.8,12.7,27.6,19.2,41.3C450.3,70.4,450.5,71.8,451.9,72.6z"/>
<path d="M193.1,78c8.4-11,16.7-21.6,24.9-32.3c4.6-6,9.3-12.1,13.9-18.1c1.1-1.4,2.2-2.6,3.9-3.3c5.2-2.2,9.4,0.4,9.4,5.9
	c0,17.7,0,35.4,0,53.1c0,3.9-1.7,5.6-5.5,5.6c-3.6,0-4.9-1.5-4.9-5.7c0-13,0-26.1,0-39.1c0-1,0-2.1,0-4.2
	c-4.7,6.1-8.8,11.3-12.9,16.6c-7.1,9.3-14.3,18.6-21.4,28c-4.6,5.9-10.6,5.9-15.2,0c-10.8-13.9-21.7-27.8-32.5-41.6
	c-0.5-0.7-1.1-1.3-1.7-2c-1.2,0.8-0.6,1.8-0.6,2.7c0,13.2,0,26.5,0,39.7c0,4.1-1.4,5.5-5.1,5.5c-3.7,0-5.3-1.7-5.3-5.8
	c0-17.5,0-35,0-52.4c0-2.7,0.2-5.4,3.2-6.5c3.1-1.1,6.1-0.6,8.4,1.9c2,2.1,3.8,4.5,5.6,6.8c11.6,14.6,23.1,29.2,34.6,43.7
	C192.3,76.9,192.6,77.3,193.1,78z"/>
<path d="M636.8,40.2c-11.9,15.5-23.2,30.1-34.4,44.8c-1.8,2.3-3.8,3.8-6.8,3.9c-3.3,0.1-5.8-1.3-7.8-3.9
	c-11.4-14.7-22.9-29.3-34.5-44.1c-0.9,1-0.5,2.1-0.5,3.1c0,13.1,0,26.3,0,39.4c0,4.1-1.8,5.7-5.8,5.5c-3-0.2-4.7-1.6-4.6-4.7
	c0-0.5,0-1.1,0-1.6c0-17.1,0-34.1,0-51.1c0-3-0.1-6.1,3.5-7.3c3.5-1.2,6.5-0.1,8.8,2.7c6.6,8.1,13,16.3,19.5,24.5
	c6.5,8.2,13,16.3,19.4,24.6c1.6,2.1,2.2,1.8,3.6-0.1c12-15.7,24.1-31.4,36.2-47.1c1.7-2.2,3.4-4.2,6.3-4.9c4.5-1,7.6,1.3,7.6,5.9
	c0,18,0,36,0,54.1c0,3.6-1.5,5.1-5.2,5.1c-3.6,0-5.2-1.4-5.2-5.1c-0.1-13,0-26.1,0-39.1C636.8,43.5,636.8,42.4,636.8,40.2z"/>
<path d="M281.1,56c0-9.2,0-18.5,0-27.7c0-2.9,1.2-4.1,4.1-4.1c17.7,0.1,35.4,0,53,0.2c4.5,0,8.9,1,12.9,3.1
	c4.8,2.6,7.4,6.5,7.4,12.1c0,10.6,0,21.3,0,31.9c0,7.2-3.4,12.1-10.2,14.6c-4.5,1.6-9.1,2.1-13.8,2.1c-16.1,0-32.3,0-48.5,0
	c-4.3,0-4.9-0.6-4.9-4.9C281.1,74.2,281.1,65.1,281.1,56z M317.4,32.7c-8.4,0-15.2,0.1-22.1-0.1c-2.6-0.1-3.6,0.4-3.5,3.3
	c0.2,13.6,0.1,27.1,0,40.7c0,2.3,0.5,3.2,3,3.1c12.6-0.1,25.3-0.1,37.9-0.1c3.3,0,6.5-0.3,9.7-1.3c4.1-1.4,5.7-3.6,5.8-8
	c0-9.3,0-18.7,0-28c0-5.9-1.6-8-7.5-9.1C332.4,31.8,324.1,33.1,317.4,32.7z"/>
<path d="M504.1,38.4c-3,6.3-5.8,12.3-8.6,18.2c-4.4,9.3-8.7,18.7-13.1,28c-1.2,2.6-3,4.3-6.1,3.8c-4-0.7-5.4-3.9-3.5-7.9
	c7-15.1,14-30.1,21-45.1c0.9-2,1.8-3.9,2.7-5.9c1.5-3.1,3.7-5.5,7.4-5.6c3.9-0.1,6.2,2.4,7.7,5.7c6.2,13.2,12.2,26.3,18.4,39.5
	c1.8,3.8,3.6,7.7,5.3,11.5c1.6,3.5,0.9,6-2,7.4c-3.1,1.5-5.8,0.4-7.4-3.1c-6-12.8-12-25.7-18-38.6C506.6,43.8,505.5,41.3,504.1,38.4
	z"/>
<path d="M100.6,98.7c-9.1,8.9-20.3,13.8-32.8,15.4C36.7,118,8.6,98.3,1.5,67.9c-6.3-27,7.7-55.5,33-67c0.7-0.3,1.3-0.8,2.6-0.4
	c-4.6,3-8.8,5.9-12.3,9.6C9.3,26.9,4,46.4,10.9,68.2c6.7,21.4,21.9,34.5,43.9,39.4c15.4,3.4,29.8,0.2,43.2-8.1
	c0.7-0.5,1.5-0.9,2.2-1.3C100.3,98.4,100.5,98.5,100.6,98.7z"/>
<path d="M115.5,55.2c-7.7-25.9-31.7-32.4-48.1-26.5c-7.3,2.6-13.3,6.9-17.9,13.1c-4.5,6.1-6.8,13.1-7.1,20.6
	c-0.3,7.6,2,14.7,6.4,21.9c-13.2-9.7-17.4-31-9.8-47.1C47.1,20.1,67,10.9,85.3,15.6C103.6,20.3,116.7,37.3,115.5,55.2z"/>
<path d="M108.2,22.1c-19.9-20.3-51-20.2-70,0.1C19.3,42.5,21,79.7,50.5,96.2c-13.2-2.7-31.8-19.8-33.2-43.4
	C15.8,27.5,33.9,3.6,60.7,0.3C80.1-2.1,106,10,108.2,22.1z"/>
<path d="M103.5,80.8c2.1-17.6-6.5-29.4-22.3-30.7C66.6,48.9,56.1,59.7,55.1,77c-6.8-10.5-2.2-27.5,9.4-35.4
	c12.9-8.7,30.4-5.4,39.4,7.2C112.3,60.5,109.1,76.5,103.5,80.8z"/>
<path d="M257.8,56.2c0-9,0-18,0-27c0-4.2,1.4-5.5,5.4-5.6c4,0,5.4,1.3,5.4,5.6c0,17.9,0,35.8,0,53.7c0,4.3-1.6,5.9-5.6,5.8
	c-3.8-0.1-5.2-1.6-5.2-5.9C257.8,74,257.8,65.1,257.8,56.2z"/>
<path d="M87.8,93.7c3.4-8.5,2.2-15.2-3.5-19.9C78.6,69,72,69.4,63.5,74.9c1.2-7.3,7.9-12.9,15.9-13.2c7.9-0.3,15.3,5.2,17.2,12.9
	C98.4,82.3,94.9,90.3,87.8,93.7z"/>
<path d="M101,97.6c0.2-0.1,0.5-0.1,0.7-0.2c-0.1,0.2-0.3,0.4-0.4,0.5C101.1,97.9,101,97.8,101,97.6z"/>
<path d="M101.2,98c-0.2,0.2-0.4,0.4-0.6,0.7c-0.2-0.1-0.3-0.3-0.4-0.5c0.3-0.2,0.5-0.4,0.8-0.5C101,97.8,101.1,97.9,101.2,98z"/>
</svg>
