<svg width="28" height="18" viewBox="0 0 28 18" fill="none" xmlns="http://www.w3.org/2000/svg">
    <path opacity="0.8" d="M19.0257 3.35873L19.0264 3.35944L24.0807 8.13938L0.666051 8.13938C0.511556 8.13938 0.4 8.27389 0.4 8.42037L0.4 9.77787C0.4 9.92436 0.511556 10.0589 0.666051 10.0589L24.0807 10.0589L19.0269 14.8384C19.0268 14.8385 19.0267 14.8386 19.0266 14.8387C18.9323 14.9269 18.881 15.0535 18.881 15.1852L18.881 17.0178C18.881 17.1332 18.945 17.2271 19.0338 17.2712C19.1237 17.3158 19.2382 17.3082 19.324 17.226C19.3241 17.2259 19.3242 17.2258 19.3243 17.2257L27.2629 9.71707C27.2629 9.71706 27.2629 9.71705 27.2629 9.71703C27.3453 9.63925 27.4107 9.54363 27.4554 9.43695C27.5001 9.33027 27.5231 9.2147 27.5231 9.09799C27.5231 8.98129 27.5001 8.86572 27.4554 8.75903C27.4107 8.65235 27.3453 8.55672 27.2629 8.47894C27.2629 8.47893 27.2629 8.47892 27.2629 8.47891L19.3237 0.971999L19.3236 0.971919C19.2373 0.890546 19.1231 0.882152 19.0329 0.927174C18.9439 0.971536 18.881 1.06559 18.881 1.18041L18.881 3.01303C18.881 3.1433 18.9328 3.26911 19.0257 3.35873Z" fill="white" stroke="white" stroke-width="0.2"/>
</svg>
