<svg width="18" height="16" viewBox="0 0 18 16" fill="none" xmlns="http://www.w3.org/2000/svg">
    <path opacity="0.7" d="M11.3607 0.169148L11.3607 1.88624C11.3607 1.98375 11.3918 2.07703 11.4463 2.14274L15.3739 6.78313L0.124538 6.78313C0.0560429 6.78313 2.76512e-07 6.85944 2.73411e-07 6.95272L2.31128e-07 8.22464C2.28027e-07 8.31791 0.0560428 8.39423 0.124538 8.39423L15.3739 8.39423L11.4463 13.0346C11.3918 13.0982 11.3607 13.1915 11.3607 13.2911L11.3607 15.0082C11.3607 15.1524 11.4868 15.2308 11.5662 15.1354L17.5206 8.09957C17.5745 8.03597 17.6177 7.95734 17.6473 7.86901C17.6769 7.78068 17.6923 7.68472 17.6923 7.58762C17.6923 7.49052 17.6769 7.39456 17.6473 7.30623C17.6177 7.2179 17.5745 7.13927 17.5206 7.07567L11.5662 0.0419566C11.4852 -0.0534375 11.3607 0.0249974 11.3607 0.169148Z" fill="white"/>
</svg>
