<svg id="Layer_4" data-name="Layer 4" xmlns="http://www.w3.org/2000/svg" viewBox="0 0 20.01 14.23"><defs><style>.cls-1{fill:#fff;}</style></defs><polygon class="cls-1" points="5.12 0 0.71 0 0 0.72 0 5.12 1.43 5.12 1.43 1.43 5.12 1.43 5.12 0"/><polygon class="cls-1" points="0 9.06 0 13.46 0.72 14.18 5.12 14.18 5.12 12.75 1.43 12.75 1.43 9.06 0 9.06"/><polygon class="cls-1" points="20.01 5.12 20.01 0.71 19.29 0 14.89 0 14.89 1.43 18.58 1.43 18.58 5.12 20.01 5.12"/><polygon class="cls-1" points="14.89 14.23 19.3 14.23 20.01 13.51 20.01 9.11 18.58 9.11 18.58 12.8 14.89 12.8 14.89 14.23"/></svg>