<svg width="12" height="12" viewBox="0 0 12 12" fill="none" xmlns="http://www.w3.org/2000/svg">
<path opacity="0.6" d="M5.9985 2.92142C4.29485 2.92142 2.91992 4.29635 2.91992 6C2.91992 7.70365 4.29485 9.07858 5.9985 9.07858C7.70215 9.07858 9.07708 7.70365 9.07708 6C9.07708 4.29635 7.70215 2.92142 5.9985 2.92142ZM5.9985 8.00085C4.89676 8.00085 3.99765 7.10174 3.99765 6C3.99765 4.89826 4.89676 3.99915 5.9985 3.99915C7.10024 3.99915 7.99935 4.89826 7.99935 6C7.99935 7.10174 7.10024 8.00085 5.9985 8.00085ZM9.20317 2.07785C8.8054 2.07785 8.48418 2.39907 8.48418 2.79684C8.48418 3.1946 8.8054 3.51582 9.20317 3.51582C9.60093 3.51582 9.92215 3.19611 9.92215 2.79684C9.92227 2.70238 9.90375 2.60884 9.86766 2.52155C9.83157 2.43427 9.77862 2.35496 9.71183 2.28817C9.64504 2.22138 9.56573 2.16843 9.47845 2.13234C9.39117 2.09625 9.29762 2.07773 9.20317 2.07785ZM11.9996 6C11.9996 5.17144 12.0071 4.35039 11.9605 3.52333C11.914 2.56268 11.6948 1.7101 10.9924 1.00763C10.2884 0.303651 9.43732 0.0860042 8.47667 0.0394728C7.64811 -0.00705863 6.82706 0.000446468 6 0.000446468C5.17144 0.000446468 4.35039 -0.00705863 3.52333 0.0394728C2.56268 0.0860042 1.7101 0.305152 1.00763 1.00763C0.303651 1.7116 0.0860043 2.56268 0.0394728 3.52333C-0.00705863 4.35189 0.000446468 5.17294 0.000446468 6C0.000446468 6.82706 -0.00705863 7.64961 0.0394728 8.47667C0.0860043 9.43732 0.305152 10.2899 1.00763 10.9924C1.7116 11.6963 2.56268 11.914 3.52333 11.9605C4.35189 12.0071 5.17294 11.9996 6 11.9996C6.82856 11.9996 7.64962 12.0071 8.47667 11.9605C9.43732 11.914 10.2899 11.6948 10.9924 10.9924C11.6964 10.2884 11.914 9.43732 11.9605 8.47667C12.0086 7.64961 11.9996 6.82856 11.9996 6ZM10.6787 9.53939C10.5691 9.81258 10.437 10.0167 10.2254 10.2269C10.0137 10.4385 9.81108 10.5706 9.53789 10.6802C8.74836 10.9939 6.87359 10.9233 5.9985 10.9233C5.12341 10.9233 3.24714 10.9939 2.45761 10.6817C2.18442 10.5721 1.98028 10.44 1.77014 10.2284C1.5585 10.0167 1.42641 9.81408 1.31684 9.54089C1.00463 8.74986 1.07517 6.87509 1.07517 6C1.07517 5.12491 1.00463 3.24864 1.31684 2.45911C1.42641 2.18592 1.5585 1.98179 1.77014 1.77164C1.98179 1.5615 2.18442 1.42791 2.45761 1.31834C3.24714 1.00613 5.12341 1.07667 5.9985 1.07667C6.87359 1.07667 8.74986 1.00613 9.53939 1.31834C9.81258 1.42791 10.0167 1.56 10.2269 1.77164C10.4385 1.98329 10.5706 2.18592 10.6802 2.45911C10.9924 3.24864 10.9218 5.12491 10.9218 6C10.9218 6.87509 10.9924 8.74986 10.6787 9.53939Z" fill="#F2AF71"/>
</svg>
