<svg width="13" height="12" viewBox="0 0 13 12" fill="none" xmlns="http://www.w3.org/2000/svg">
<path opacity="0.6" fill-rule="evenodd" clip-rule="evenodd" d="M2.8894 1.4447C2.8894 2.24259 2.24259 2.8894 1.4447 2.8894C0.646814 2.8894 0 2.24259 0 1.4447C0 0.646814 0.646814 0 1.4447 0C2.24259 0 2.8894 0.646814 2.8894 1.4447ZM4.25168 11.9993V3.9841H6.64058V5.08018H6.67426C7.00638 4.45093 7.81853 3.78602 9.03015 3.78602C11.5538 3.78602 12.0186 5.44531 12.0186 7.60444V11.9999H9.52866V8.10163C9.52866 7.17261 9.51281 5.97684 8.23384 5.97684C6.93705 5.97684 6.74028 6.98972 6.74028 8.03561V11.9993H4.25168ZM2.68878 3.9841H0.196213V11.9993H2.68878V3.9841Z" fill="#F2AF71"/>
</svg>
