<svg width="16" height="12" viewBox="0 0 16 12" fill="none" xmlns="http://www.w3.org/2000/svg">
<path opacity="0.6" d="M13.8795 1.41015L15.0835 0.253355V0H10.9139L7.94239 7.43175L4.56236 0H0.190507V0.253355L1.59673 1.95417C1.73421 2.07987 1.80491 2.26448 1.78723 2.4491V9.13257C1.83044 9.37414 1.75385 9.61964 1.58494 9.79444L0 11.725V11.9745H4.48969V11.7211L2.90671 9.7964C2.8219 9.71029 2.7581 9.60577 2.72029 9.49097C2.68247 9.37617 2.67167 9.25419 2.68871 9.13453V3.35254L6.63044 11.9784H7.08805L10.4779 3.35254V10.2246C10.4779 10.4052 10.4779 10.4426 10.3601 10.5624L9.14043 11.7466V12H15.056V11.7466L13.8795 10.5899C13.7774 10.5113 13.7244 10.3797 13.746 10.252V1.74795C13.7358 1.68484 13.7429 1.62015 13.7664 1.5607C13.7899 1.50126 13.829 1.44924 13.8795 1.41015Z" fill="#F2AF71"/>
</svg>
