<svg width="134" height="134" viewBox="0 0 134 134" fill="none" xmlns="http://www.w3.org/2000/svg">
<path d="M89.2448 80.3668L89.1519 44.576L53.3612 44.4831C52.9883 44.4327 52.6089 44.4629 52.2487 44.5718C51.8885 44.6806 51.5559 44.8656 51.2734 45.1142C50.991 45.3628 50.7652 45.6692 50.6114 46.0126C50.4576 46.3561 50.3794 46.7285 50.3821 47.1048C50.3848 47.4811 50.4683 47.8524 50.627 48.1936C50.7857 48.5348 51.0158 48.8379 51.3018 49.0825C51.5878 49.327 51.923 49.5072 52.2847 49.611C52.6464 49.7147 53.0262 49.7395 53.3983 49.6837L80.2182 49.7951L44.6874 85.3259C44.1948 85.8185 43.9181 86.4866 43.9181 87.1832C43.9181 87.8798 44.1948 88.5479 44.6874 89.0405C45.18 89.5331 45.8481 89.8099 46.5447 89.8099C47.2414 89.8099 47.9095 89.5331 48.4021 89.0405L83.9328 53.5098L84.0443 80.3297C84.0467 81.0267 84.326 81.6942 84.8206 82.1853C85.3152 82.6764 85.9847 82.951 86.6817 82.9485C87.3787 82.946 88.0462 82.6668 88.5373 82.1722C89.0285 81.6776 89.303 81.0081 89.3005 80.3111L89.2448 80.3668Z" fill="white"/>
</svg>
