<svg width="18" height="12" viewBox="0 0 18 12" fill="none" xmlns="http://www.w3.org/2000/svg">
<path opacity="0.6" d="M16.7637 1.87452C16.6662 1.51154 16.4751 1.18052 16.2095 0.914591C15.944 0.648663 15.6132 0.457157 15.2503 0.359236C13.9146 7.28923e-08 8.56051 0 8.56051 0C8.56051 0 3.20637 -7.28923e-08 1.8707 0.357325C1.50768 0.454928 1.17673 0.646329 0.911094 0.912305C0.645453 1.17828 0.45447 1.50947 0.357325 1.87261C-7.28923e-08 3.21019 0 6 0 6C0 6 -7.28923e-08 8.78981 0.357325 10.1255C0.55414 10.8631 1.13503 11.4439 1.8707 11.6408C3.20637 12 8.56051 12 8.56051 12C8.56051 12 13.9146 12 15.2503 11.6408C15.9879 11.4439 16.5669 10.8631 16.7637 10.1255C17.121 8.78981 17.121 6 17.121 6C17.121 6 17.121 3.21019 16.7637 1.87452ZM6.85987 8.56051V3.43949L11.293 5.98089L6.85987 8.56051Z" fill="#F2AF71"/>
</svg>
